<?xml version="1.0" encoding="UTF-8"?>
<svg version="1.1" xmlns="http://www.w3.org/2000/svg" width="500" height="500">
<path d="M0 0 C1.35912395 -0.00322277 2.71824384 -0.00904522 4.0773468 -0.01725769 C7.75331592 -0.03174523 11.42818494 -0.00891147 15.10402107 0.02160144 C18.95910415 0.0480456 22.81415622 0.0426686 26.66931152 0.04151917 C33.14219455 0.04432486 39.61465452 0.07031741 46.08740234 0.11132812 C53.56004718 0.15850058 61.03222904 0.17432218 68.50501204 0.17212147 C76.47612101 0.1700914 84.44705266 0.19093518 92.41810799 0.21846128 C94.7081635 0.22484035 96.9981902 0.22698278 99.28825378 0.22817802 C102.8933866 0.23120297 106.49813438 0.24961064 110.10313988 0.27967644 C112.04949878 0.29254698 113.99593671 0.29094311 115.94233704 0.28884888 C124.30077691 0.38032798 130.70915503 1.23593254 137.17236328 7.07568359 C143.75520117 14.93677624 146.11790672 27.14080389 149.17288208 36.76010132 C150.70117376 41.56958388 152.25209483 46.3717569 153.80273438 51.17407227 C154.2747654 52.63761391 154.2747654 52.63761391 154.7563324 54.13072205 C157.76538139 63.43163462 160.92499233 72.67760871 164.11914062 81.91625977 C168.88344225 95.71235195 173.4579515 109.56101195 177.9367981 123.45223999 C181.92111683 135.80125706 186.04595913 148.09266228 190.29263306 160.35372925 C194.73789087 173.19990679 198.96130775 186.11193382 203.13583374 199.04833984 C207.42738225 212.34197371 211.86332236 225.57045356 216.55664062 238.72875977 C218.73646274 235.45902659 220.21029154 232.07491622 221.74414062 228.47875977 C224.0549948 223.12199927 226.43267105 217.81297879 228.93164062 212.54125977 C232.20891676 205.61562473 235.20866627 198.58138108 238.20263672 191.52954102 C241.76767311 183.16358894 245.48880876 174.86442349 249.55664062 166.72875977 C250.05449332 162.66052084 250.05449332 162.66052084 249.55664062 158.72875977 C246.04928128 154.67517568 242.4306321 152.39534108 237.56835938 150.31860352 C236.90633011 150.02442032 236.24430084 149.73023712 235.56221008 149.42713928 C233.46081871 148.49588634 231.35293967 147.58059636 229.24414062 146.66625977 C226.47566424 145.44971598 223.70954275 144.22785099 220.94335938 143.00610352 C220.28599289 142.71621552 219.6286264 142.42632751 218.95133972 142.12765503 C206.01677823 136.41044511 206.01677823 136.41044511 203.86914062 133.22875977 C203.55664062 130.72875977 203.55664062 130.72875977 204.70629883 128.69799805 C206.97569166 126.28278198 208.6907466 125.68966162 211.84960938 124.72094727 C212.93902832 124.379104 214.02844727 124.03726074 215.15087891 123.68505859 C216.33665527 123.32822998 217.52243164 122.97140137 218.74414062 122.60375977 C220.63144922 122.01673695 222.51875528 121.42970586 224.40594482 120.84230042 C226.40925278 120.22144526 228.41450032 119.60726616 230.42041016 118.99487305 C236.66239186 117.087986 242.8896883 115.13397121 249.11886597 113.1857605 C251.18175648 112.54122357 253.2452302 111.89858431 255.30883789 111.25634766 C262.98765735 108.86410474 270.6413086 106.41362655 278.26074219 103.83862305 C284.71487861 101.66023735 291.20367581 99.59737433 297.69726562 97.54003906 C305.19807839 95.16319326 312.69135722 92.76357764 320.18164062 90.35375977 C321.34308594 89.98009277 322.50453125 89.60642578 323.70117188 89.22143555 C326.08856055 88.45326507 328.47593011 87.68503517 330.86328125 86.91674805 C334.69297218 85.68490801 338.5231648 84.45463957 342.35351562 83.22485352 C343.63525643 82.81324028 344.91699474 82.40161928 346.19873047 81.98999023 C348.63127503 81.20883956 351.06388881 80.4279044 353.49658203 79.6472168 C354.59663574 79.29385254 355.69668945 78.94048828 356.83007812 78.57641602 C357.79349121 78.26712158 358.7569043 77.95782715 359.74951172 77.63916016 C361.7611618 76.98674729 363.7675461 76.31801047 365.77026367 75.63867188 C369.86934809 74.30008538 373.30766996 73.98921819 377.55664062 74.72875977 C383.44198214 78.14133447 386.13700902 83.03060073 388.55664062 89.16625977 C389.23627608 90.78922332 389.9172846 92.41161252 390.59960938 94.03344727 C390.93009277 94.83363281 391.26057617 95.63381836 391.60107422 96.45825195 C392.93085282 99.61792006 394.39258059 102.69717931 395.86914062 105.79125977 C399.06330559 112.54605638 402.0607356 119.38415621 405.05664062 126.22875977 C408.54729203 134.2023469 412.10051315 142.13006611 415.81445312 150.00219727 C421.09985915 161.24524881 426.09226469 172.62780415 431.04199219 184.02172852 C433.15698573 188.86848754 435.38317465 193.65669341 437.64428711 198.43725586 C441.12774912 205.85775067 444.38113931 213.38129201 447.64941406 220.8984375 C449.62723084 225.42968835 451.61506713 229.91172611 453.90429688 234.29516602 C455.55664062 237.72875977 455.55664062 237.72875977 455.30664062 240.72875977 C454.55664062 242.72875977 454.55664062 242.72875977 452.08007812 243.94360352 C447.16745337 245.03832367 444.56355215 243.47108431 440.18164062 241.29125977 C438.58692753 240.53923842 436.99186781 239.78795172 435.39648438 239.03735352 C434.5932373 238.6517627 433.78999023 238.26617187 432.96240234 237.86889648 C429.25903823 236.11380105 425.50404654 234.48322873 421.74414062 232.85375977 C421.0933252 232.56831299 420.44250977 232.28286621 419.77197266 231.98876953 C418.03651921 231.22856894 416.29673494 230.47827652 414.55664062 229.72875977 C413.66589844 229.34333008 412.77515625 228.95790039 411.85742188 228.56079102 C409.64402637 227.76036106 407.89941979 227.37155663 405.55664062 227.29125977 C404.91726563 227.25129883 404.27789062 227.21133789 403.61914062 227.17016602 C400.31518707 228.06498677 398.80235422 230.20206609 396.55664062 232.72875977 C395.31342299 235.06079486 394.25225482 237.26274281 393.25195312 239.68969727 C392.82135086 240.69113266 392.82135086 240.69113266 392.38204956 241.71279907 C391.47054746 243.83848295 390.57550141 245.97060582 389.68164062 248.10375977 C388.50094084 250.88420089 387.3138913 253.66191469 386.12695312 256.43969727 C385.68727203 257.47383759 385.68727203 257.47383759 385.2387085 258.52886963 C382.94176811 263.9060381 380.499647 269.20508135 378.0050354 274.4928894 C375.55930933 279.6866145 373.27939137 284.93669468 371.05664062 290.22875977 C367.97506964 297.49582614 364.74823304 304.65762022 361.36914062 311.79125977 C359.14710052 316.55277428 357.10960804 321.39257478 355.05664062 326.22875977 C351.97225159 333.4946695 348.7482888 340.65750251 345.36914062 347.79125977 C343.14709835 352.55277892 341.10971962 357.39261814 339.05664062 362.22875977 C336.00966389 369.40246094 332.83784455 376.48147334 329.50195312 383.52563477 C326.9178924 389.04750997 324.49993715 394.64361127 322.05664062 400.22875977 C319.0877185 407.01543948 316.10220102 413.78371596 312.93164062 420.47875977 C309.74291352 427.22238359 306.82071541 434.0671504 303.90966797 440.93457031 C301.05736187 447.63681433 298.02945548 454.23312337 294.86914062 460.79516602 C293.27425084 464.35993456 292.49050162 466.7146283 292.74414062 470.60375977 C292.50058421 474.66303331 291.06011756 476.58153162 288.55664062 479.72875977 C285.13801467 482.00784374 283.91454586 481.98306835 279.89680481 481.9961853 C278.12836716 482.00898026 278.12836716 482.00898026 276.32420349 482.02203369 C275.02910355 482.02112732 273.7340036 482.02022095 272.3996582 482.01928711 C271.02304723 482.02527108 269.64643961 482.03207632 268.26983643 482.03964233 C264.52784282 482.05732852 260.78594067 482.06199896 257.04390931 482.06327391 C254.7045479 482.06469521 252.36520975 482.06896454 250.02585411 482.07426834 C241.85991312 482.09278113 233.69403745 482.10093787 225.52807617 482.09936523 C217.92487558 482.09816525 210.32195952 482.11923603 202.71883088 482.15085256 C196.1862018 482.17704609 189.65366542 482.18773116 183.12098426 482.18645442 C179.22169132 482.18594544 175.3226509 482.19159161 171.42341042 482.21281052 C167.75185741 482.23224361 164.08079631 482.23228327 160.40922546 482.21777725 C158.42836614 482.21470473 156.44750652 482.23133236 154.46672058 482.24865723 C147.35024188 482.19861775 142.582736 481.61801839 136.55664062 477.72875977 C131.54740546 472.58413987 129.20656709 466.13357362 127.09570312 459.38500977 C126.86914032 458.67614624 126.64257751 457.96728271 126.40914917 457.23693848 C125.91954442 455.70487127 125.43190729 454.17217415 124.94604492 452.63891602 C123.62287294 448.46697294 122.28223402 444.30067671 120.93945312 440.13500977 C120.66139832 439.27230469 120.38334351 438.40959961 120.09686279 437.52075195 C117.19456766 428.55165501 114.13402858 419.63897084 111.05664062 410.72875977 C106.49443845 397.50703264 102.09553559 384.24254839 97.81689453 370.92651367 C94.02857256 359.14700493 90.09141893 347.42602507 86.05664062 335.72875977 C81.49585094 322.50652973 77.09554611 309.24258112 72.81689453 295.92651367 C69.02857256 284.14700493 65.09141893 272.42602507 61.05664062 260.72875977 C56.49585094 247.50652973 52.09554611 234.24258112 47.81689453 220.92651367 C44.02857256 209.14700493 40.09141893 197.42602507 36.05664062 185.72875977 C31.49585094 172.50652973 27.09554611 159.24258112 22.81689453 145.92651367 C19.02857256 134.14700493 15.09141893 122.42602507 11.05664062 110.72875977 C6.49917114 97.51615535 2.08681754 84.26596656 -2.17102051 70.95370483 C-5.02555723 62.02950016 -7.96838856 53.14762531 -11.08398438 44.31079102 C-11.38639038 43.44819672 -11.68879639 42.58560242 -12.00036621 41.6968689 C-13.45908874 37.53650869 -14.93152601 33.38218816 -16.43164062 29.23657227 C-22.15456068 13.1710179 -22.15456068 13.1710179 -20.44335938 6.72875977 C-15.51860131 -0.66460531 -8.05820844 -0.10751086 0 0 Z " fill="#3A82F5" transform="translate(32.443359375,10.271240234375)"/>
<path d="M0 0 C5.88534151 3.4125747 8.58036839 8.30184097 11 14.4375 C11.67963545 16.06046356 12.36064397 17.68285275 13.04296875 19.3046875 C13.37345215 20.10487305 13.70393555 20.90505859 14.04443359 21.72949219 C15.37421219 24.88916029 16.83593997 27.96841954 18.3125 31.0625 C21.50666496 37.81729662 24.50409497 44.65539644 27.5 51.5 C30.99065141 59.47358713 34.54387252 67.40130635 38.2578125 75.2734375 C43.54321852 86.51648905 48.53562407 97.89904439 53.48535156 109.29296875 C55.6003451 114.13972777 57.82653403 118.92793365 60.08764648 123.70849609 C63.5711085 131.1289909 66.82449868 138.65253224 70.09277344 146.16967773 C72.07059021 150.70092858 74.05842651 155.18296634 76.34765625 159.56640625 C78 163 78 163 77.75 166 C77 168 77 168 74.5234375 169.21484375 C69.61081274 170.3095639 67.00691153 168.74232454 62.625 166.5625 C61.0302869 165.81047865 59.43522719 165.05919195 57.83984375 164.30859375 C56.63497314 163.73020752 56.63497314 163.73020752 55.40576172 163.14013672 C51.70239761 161.38504129 47.94740591 159.75446896 44.1875 158.125 C43.53668457 157.83955322 42.88586914 157.55410645 42.21533203 157.26000977 C40.47987859 156.49980917 38.74009431 155.74951676 37 155 C36.10925781 154.61457031 35.21851563 154.22914063 34.30078125 153.83203125 C32.08738575 153.0316013 30.34277916 152.64279687 28 152.5625 C27.360625 152.52253906 26.72125 152.48257813 26.0625 152.44140625 C22.75854644 153.33622701 21.24571359 155.47330633 19 158 C17.75678237 160.33203509 16.69561419 162.53398304 15.6953125 164.9609375 C15.40824432 165.6285611 15.12117615 166.29618469 14.82540894 166.98403931 C13.91390683 169.10972318 13.01886078 171.24184605 12.125 173.375 C10.94430022 176.15544113 9.75725067 178.93315492 8.5703125 181.7109375 C8.27719177 182.40036438 7.98407104 183.08979126 7.68206787 183.80010986 C5.38512749 189.17727833 2.94300638 194.47632159 0.44839478 199.76412964 C-1.9973313 204.95785473 -4.27724926 210.20793492 -6.5 215.5 C-9.58157098 222.76706637 -12.80840759 229.92886046 -16.1875 237.0625 C-18.40954011 241.82401451 -20.44703259 246.66381502 -22.5 251.5 C-25.58438903 258.76590974 -28.80835183 265.92874275 -32.1875 273.0625 C-34.40954227 277.82401916 -36.44692101 282.66385837 -38.5 287.5 C-41.54697673 294.67370118 -44.71879607 301.75271357 -48.0546875 308.796875 C-50.63874822 314.31875021 -53.05670347 319.9148515 -55.5 325.5 C-58.46892213 332.28667971 -61.45443961 339.0549562 -64.625 345.75 C-67.81317731 352.4924611 -70.73243448 359.33692795 -73.64697266 366.20141602 C-77.21158472 374.56666899 -80.93253169 382.86506338 -85 391 C-85.66 391 -86.32 391 -87 391 C-100.05180299 352.89933487 -112.8967268 314.73082643 -125.67073727 276.53622913 C-129.17589954 266.05641949 -132.68642474 255.57846632 -136.2097168 245.10473633 C-139.32377918 235.84752679 -142.42843669 226.58722858 -145.52149588 217.32297915 C-147.1481607 212.4518245 -148.77936295 207.5823026 -150.42188835 202.71647072 C-151.95468634 198.17512799 -153.4747902 193.62973706 -154.9851284 189.0808773 C-155.54037959 187.41600339 -156.10025992 185.75266512 -156.66509628 184.09101868 C-157.43482466 181.82434825 -158.18770495 179.55274247 -158.93663025 177.27912903 C-159.16345031 176.62420229 -159.39027038 175.96927556 -159.62396377 175.29450256 C-161.47048102 169.58241587 -160.70638843 165.19665609 -158.3984375 159.78515625 C-158.07689697 159.02477051 -157.75535645 158.26438477 -157.42407227 157.48095703 C-156.90478149 156.2838208 -156.90478149 156.2838208 -156.375 155.0625 C-156.015271 154.22058105 -155.65554199 153.37866211 -155.28491211 152.51123047 C-152.8712975 146.90195399 -150.33920743 141.36039153 -147.71630859 135.84594727 C-145.16941721 130.4565304 -142.82850191 124.98675623 -140.5 119.5 C-136.56334257 110.2272642 -132.5066006 101.01320121 -128 92 C-127.5021473 87.93176108 -127.5021473 87.93176108 -128 84 C-131.50735934 79.94641591 -135.12600852 77.66658131 -139.98828125 75.58984375 C-140.65031052 75.29566055 -141.31233978 75.00147736 -141.99443054 74.69837952 C-144.09582192 73.76712657 -146.20370095 72.8518366 -148.3125 71.9375 C-151.08097638 70.72095621 -153.84709788 69.49909122 -156.61328125 68.27734375 C-157.27064774 67.98745575 -157.92801422 67.69756775 -158.6053009 67.39889526 C-171.5398624 61.68168534 -171.5398624 61.68168534 -173.6875 58.5 C-174 56 -174 56 -172.8503418 53.96923828 C-170.58094897 51.55402222 -168.86589402 50.96090186 -165.70703125 49.9921875 C-164.6176123 49.65034424 -163.52819336 49.30850098 -162.40576172 48.95629883 C-161.21998535 48.59947021 -160.03420898 48.2426416 -158.8125 47.875 C-156.9251914 47.28797718 -155.03788535 46.7009461 -153.1506958 46.11354065 C-151.14738785 45.4926855 -149.1421403 44.87850639 -147.13623047 44.26611328 C-140.89424876 42.35922623 -134.66695233 40.40521144 -128.43777466 38.45700073 C-126.37488414 37.8124638 -124.31141043 37.16982454 -122.24780273 36.52758789 C-114.56898327 34.13534498 -106.91533202 31.68486679 -99.29589844 29.10986328 C-92.84176201 26.93147759 -86.35296482 24.86861456 -79.859375 22.8112793 C-72.35856223 20.43443349 -64.86528341 18.03481787 -57.375 15.625 C-56.21355469 15.25133301 -55.05210937 14.87766602 -53.85546875 14.49267578 C-51.46808007 13.7245053 -49.08071052 12.9562754 -46.69335938 12.18798828 C-42.86366845 10.95614825 -39.03347582 9.7258798 -35.203125 8.49609375 C-33.9213842 8.08448051 -32.63964588 7.67285951 -31.35791016 7.26123047 C-28.92536559 6.4800798 -26.49275181 5.69914464 -24.06005859 4.91845703 C-22.96000488 4.56509277 -21.85995117 4.21172852 -20.7265625 3.84765625 C-19.28144287 3.3837146 -19.28144287 3.3837146 -17.80712891 2.91040039 C-15.79547882 2.25798752 -13.78909453 1.58925071 -11.78637695 0.90991211 C-7.68729254 -0.42867438 -4.24897067 -0.73954158 0 0 Z " fill="#10B981" transform="translate(410,85)"/>
</svg>
